<?xml version="1.0" encoding="UTF-8"?> <svg xmlns="http://www.w3.org/2000/svg" xmlns:xlink="http://www.w3.org/1999/xlink" width="352.43" height="65.28" viewBox="0 0 352.43 65.28"><defs><linearGradient id="a" x1="6.86" y1="38.95" x2="69.76" y2="38.95" gradientUnits="userSpaceOnUse"><stop offset="0" stop-color="#dae033"></stop><stop offset="0.54" stop-color="#4cc3d2"></stop><stop offset="1" stop-color="#512e6f"></stop></linearGradient><linearGradient id="b" x1="6.86" y1="34.4" x2="69.76" y2="34.4" xlink:href="#a"></linearGradient><linearGradient id="c" x1="6.86" y1="22.98" x2="69.76" y2="22.98" xlink:href="#a"></linearGradient></defs><path d="M107.42,14.78c4.32,0,12,1.81,12,6.94v3.13h-4.17V23c0-2.68-4.54-4-7.76-4-6.45,0-11.44,4.85-11.44,12.07,0,7,5,12.57,11.57,12.57a14.2,14.2,0,0,0,10.12-4.35l2.45,3.26a17.34,17.34,0,0,1-12.61,5.36c-9.58,0-16.25-7.4-16.25-16.84C91.36,21.81,98.26,14.78,107.42,14.78Z" fill="#fff"></path><path d="M135.6,23.85c6.86,0,12.4,5,12.4,12s-5.54,12.07-12.4,12.07a12,12,0,0,1-12.34-12.07C123.26,28.89,128.75,23.85,135.6,23.85Zm0,20.25a7.93,7.93,0,0,0,7.9-8.26,7.88,7.88,0,1,0-15.75,0A7.93,7.93,0,0,0,135.6,44.1Z" fill="#fff"></path><path d="M153.48,29.16a.88.88,0,0,0-1-1h-1.86V24.4h4.18c2,0,2.95.82,2.95,2.68v1.45a13.44,13.44,0,0,1-.09,1.59h.09c1.09-3.36,3.72-6,7.26-6a9,9,0,0,1,1.18.09v4.35a6.83,6.83,0,0,0-1.32-.13c-2.81,0-5.4,2-6.44,5.4a13.87,13.87,0,0,0-.55,4.13v9.39h-4.4Z" fill="#fff"></path><path d="M172.27,29.16a.88.88,0,0,0-1-1h-1.86V24.4h4.18c2,0,2.95.82,2.95,2.68v1.45a12.12,12.12,0,0,1-.1,1.59h.1c1.09-3.36,3.72-6,7.26-6a9,9,0,0,1,1.18.09v4.35a6.83,6.83,0,0,0-1.32-.13c-2.81,0-5.4,2-6.44,5.4a13.87,13.87,0,0,0-.55,4.13v9.39h-4.4Z" fill="#fff"></path><path d="M199,23.85c6.86,0,12.4,5,12.4,12S205.9,47.91,199,47.91A12,12,0,0,1,186.7,35.84C186.7,28.89,192.19,23.85,199,23.85Zm0,20.25a7.93,7.93,0,0,0,7.9-8.26,7.88,7.88,0,1,0-15.75,0A7.93,7.93,0,0,0,199,44.1Z" fill="#fff"></path><path d="M217.74,20.22a.89.89,0,0,0-1-1h-2v-3.9h4.58c2,0,2.91.86,2.91,2.91V29.44h16.29V18.23c0-2.05.86-2.91,2.91-2.91h4.58v3.9h-1.95a.89.89,0,0,0-1,1V47.36h-4.54V33.29H222.28V47.36h-4.54Z" fill="#fff"></path><path d="M260.72,23.85c6.44,0,9.89,4.81,9.89,10.76,0,.59-.14,1.82-.14,1.82H253.73a7.69,7.69,0,0,0,7.89,7.67,10.56,10.56,0,0,0,6.72-2.68l1.91,3.13a13.46,13.46,0,0,1-8.85,3.36c-7.27,0-12.21-5.22-12.21-12C249.19,28.57,254.18,23.85,260.72,23.85Zm5.35,9.35c-.14-3.81-2.54-5.85-5.4-5.85a6.61,6.61,0,0,0-6.76,5.85Z" fill="#fff"></path><path d="M288.12,33.07h1v-.23c0-4-1.49-5.49-5.08-5.49-1.09,0-3.77.27-3.77,1.77v1.31h-4.13V28.17c0-3.77,5.72-4.32,7.95-4.32,7.44,0,9.44,3.91,9.44,9V42.6a.89.89,0,0,0,1,1h1.87v3.76h-4.13c-2.05,0-2.86-1-2.86-2.63a10,10,0,0,1,.09-1.36h-.09a7.85,7.85,0,0,1-7.31,4.54c-3.95,0-7.81-2.41-7.81-7C274.28,33.52,284.27,33.07,288.12,33.07ZM283,44.37c3.72,0,6.13-3.91,6.13-7.31v-.77H288c-3.31,0-9.3.18-9.3,4.4C278.73,42.55,280.14,44.37,283,44.37Z" fill="#fff"></path><path d="M301.06,20.09a.89.89,0,0,0-1-1H298.2V15.32h4.35c2.05,0,2.91.86,2.91,2.91V42.6a.89.89,0,0,0,1,1h1.86v3.76H304c-2,0-2.9-.86-2.9-2.9Z" fill="#fff"></path><path d="M313.49,27.94h-3V24.4h3.09V18.09h4.31V24.4h5.49v3.54h-5.49V38.47c0,4.58,3.18,5.17,4.86,5.17a5.34,5.34,0,0,0,1-.09v3.9a10.18,10.18,0,0,1-1.54.1c-2.91,0-8.76-.91-8.76-8.58Z" fill="#fff"></path><path d="M328.78,20.09a.89.89,0,0,0-1-1h-1.87V15.32h4.36c2,0,2.91.86,2.91,2.82v8.94c0,1.09-.09,1.9-.09,1.9h.09a9.33,9.33,0,0,1,8.53-5.13c5.4,0,7.85,2.95,7.85,8.81V42.6a.89.89,0,0,0,1,1h1.86v3.76h-4.31c-2,0-2.91-.86-2.91-2.9V33.66c0-3.23-.68-5.77-4.35-5.77a7.55,7.55,0,0,0-7.26,5.68,9.21,9.21,0,0,0-.41,3V47.36h-4.41Z" fill="#fff"></path><path d="M73.35,20.94a2,2,0,0,0-2,2,29.9,29.9,0,0,1-59.8,0,2,2,0,1,0-4.08,0,34,34,0,1,0,68,0A2,2,0,0,0,73.35,20.94Z" fill="url(#a)"></path><path d="M41.41,47.86A24.91,24.91,0,0,0,66.29,23a2,2,0,0,0-4.08,0,20.8,20.8,0,1,1-41.59,0,2,2,0,0,0-4.09,0A24.91,24.91,0,0,0,41.41,47.86Z" fill="url(#b)"></path><path d="M41.41,37.65A14.67,14.67,0,1,0,26.74,23,14.69,14.69,0,0,0,41.41,37.65Zm0-25.25A10.59,10.59,0,1,1,30.83,23,10.6,10.6,0,0,1,41.41,12.4Z" fill="url(#c)"></path></svg> 